<svg width="13" height="11" viewBox="0 0 13 11" fill="none" xmlns="http://www.w3.org/2000/svg">
<path d="M12.4375 10.0937H1.06253C0.986738 10.0937 0.912246 10.0778 0.846351 10.0475C0.780457 10.0173 0.72542 9.97374 0.686633 9.92114C0.647846 9.86855 0.626639 9.80873 0.625091 9.74752C0.623543 9.68632 0.641707 9.62584 0.677802 9.57201L6.3653 1.09125C6.40283 1.03526 6.4584 0.9885 6.52612 0.955915C6.59384 0.92333 6.6712 0.906128 6.75003 0.906128C6.82886 0.906128 6.90622 0.92333 6.97394 0.955915C7.04166 0.9885 7.09722 1.03526 7.13476 1.09125L12.8223 9.57201C12.8584 9.62584 12.8765 9.68632 12.875 9.74752C12.8734 9.80873 12.8522 9.86855 12.8134 9.92114C12.7746 9.97374 12.7196 10.0173 12.6537 10.0475C12.5878 10.0778 12.5133 10.0937 12.4375 10.0937Z" fill="#24C23E"/>
</svg>
