<svg width="14" height="11" viewBox="0 0 14 11" fill="none" xmlns="http://www.w3.org/2000/svg">
<path d="M12.6875 0.90633H1.31253C1.23674 0.906326 1.16225 0.922225 1.09635 0.952469C1.03046 0.982713 0.97542 1.02626 0.936633 1.07886C0.897846 1.13145 0.876639 1.19127 0.875091 1.25248C0.873543 1.31368 0.891707 1.37416 0.927802 1.42799L6.6153 9.90875C6.65283 9.96474 6.7084 10.0115 6.77612 10.0441C6.84384 10.0767 6.9212 10.0939 7.00003 10.0939C7.07886 10.0939 7.15622 10.0767 7.22394 10.0441C7.29166 10.0115 7.34722 9.96474 7.38476 9.90875L13.0723 1.42799C13.1084 1.37416 13.1265 1.31368 13.125 1.25248C13.1234 1.19127 13.1022 1.13145 13.0634 1.07886C13.0246 1.02626 12.9696 0.982713 12.9037 0.952469C12.8378 0.922225 12.7633 0.906326 12.6875 0.90633Z" fill="#D63131"/>
</svg>
